<mxfile host="Electron" modified="2024-06-01T11:31:27.565Z" agent="Mozilla/5.0 (Windows NT 10.0; Win64; x64) AppleWebKit/537.36 (KHTML, like Gecko) draw.io/24.4.13 Chrome/124.0.6367.207 Electron/30.0.6 Safari/537.36" etag="0euJ9mmBAOPJ7bVABpD_" version="24.4.13" type="device">
  <diagram name="페이지-1" id="LNrV1RjGXWvmLCQQGxU9">
    <mxGraphModel dx="1098" dy="820" grid="1" gridSize="10" guides="1" tooltips="1" connect="1" arrows="1" fold="1" page="1" pageScale="1" pageWidth="827" pageHeight="1169" math="0" shadow="0">
      <root>
        <mxCell id="0" />
        <mxCell id="1" parent="0" />
        <mxCell id="HMQQhb6fDYw17Yuh2_Ba-3" value="" style="edgeStyle=orthogonalEdgeStyle;rounded=0;orthogonalLoop=1;jettySize=auto;html=1;" edge="1" parent="1" source="HMQQhb6fDYw17Yuh2_Ba-1" target="HMQQhb6fDYw17Yuh2_Ba-2">
          <mxGeometry relative="1" as="geometry">
            <Array as="points">
              <mxPoint x="130" y="420" />
              <mxPoint x="130" y="420" />
            </Array>
          </mxGeometry>
        </mxCell>
        <mxCell id="HMQQhb6fDYw17Yuh2_Ba-5" value="" style="rounded=0;orthogonalLoop=1;jettySize=auto;html=1;" edge="1" parent="1" source="HMQQhb6fDYw17Yuh2_Ba-1" target="HMQQhb6fDYw17Yuh2_Ba-4">
          <mxGeometry relative="1" as="geometry" />
        </mxCell>
        <mxCell id="HMQQhb6fDYw17Yuh2_Ba-1" value="Actor" style="shape=umlActor;verticalLabelPosition=bottom;verticalAlign=top;html=1;outlineConnect=0;" vertex="1" parent="1">
          <mxGeometry x="40" y="390" width="70" height="120" as="geometry" />
        </mxCell>
        <mxCell id="HMQQhb6fDYw17Yuh2_Ba-10" value="" style="edgeStyle=orthogonalEdgeStyle;rounded=0;orthogonalLoop=1;jettySize=auto;html=1;" edge="1" parent="1" source="HMQQhb6fDYw17Yuh2_Ba-2" target="HMQQhb6fDYw17Yuh2_Ba-9">
          <mxGeometry relative="1" as="geometry" />
        </mxCell>
        <mxCell id="HMQQhb6fDYw17Yuh2_Ba-2" value="Logins" style="ellipse;whiteSpace=wrap;html=1;verticalAlign=top;" vertex="1" parent="1">
          <mxGeometry x="170" y="405" width="80" height="30" as="geometry" />
        </mxCell>
        <mxCell id="HMQQhb6fDYw17Yuh2_Ba-7" value="" style="edgeStyle=orthogonalEdgeStyle;rounded=0;orthogonalLoop=1;jettySize=auto;html=1;" edge="1" parent="1" source="HMQQhb6fDYw17Yuh2_Ba-4" target="HMQQhb6fDYw17Yuh2_Ba-6">
          <mxGeometry relative="1" as="geometry" />
        </mxCell>
        <mxCell id="HMQQhb6fDYw17Yuh2_Ba-11" value="" style="edgeStyle=orthogonalEdgeStyle;rounded=0;orthogonalLoop=1;jettySize=auto;html=1;" edge="1" parent="1" source="HMQQhb6fDYw17Yuh2_Ba-4" target="HMQQhb6fDYw17Yuh2_Ba-2">
          <mxGeometry relative="1" as="geometry" />
        </mxCell>
        <mxCell id="HMQQhb6fDYw17Yuh2_Ba-4" value="Registers" style="ellipse;whiteSpace=wrap;html=1;verticalAlign=top;" vertex="1" parent="1">
          <mxGeometry x="170" y="490" width="80" height="30" as="geometry" />
        </mxCell>
        <mxCell id="HMQQhb6fDYw17Yuh2_Ba-6" value="newAccount()" style="ellipse;whiteSpace=wrap;html=1;verticalAlign=top;" vertex="1" parent="1">
          <mxGeometry x="165" y="570" width="90" height="30" as="geometry" />
        </mxCell>
        <mxCell id="HMQQhb6fDYw17Yuh2_Ba-8" value="&amp;lt;&amp;lt;Extends&amp;gt;&amp;gt;" style="text;html=1;align=center;verticalAlign=middle;whiteSpace=wrap;rounded=0;" vertex="1" parent="1">
          <mxGeometry x="210" y="530" width="60" height="30" as="geometry" />
        </mxCell>
        <mxCell id="HMQQhb6fDYw17Yuh2_Ba-13" value="" style="edgeStyle=orthogonalEdgeStyle;rounded=0;orthogonalLoop=1;jettySize=auto;html=1;" edge="1" parent="1" source="HMQQhb6fDYw17Yuh2_Ba-9" target="HMQQhb6fDYw17Yuh2_Ba-12">
          <mxGeometry relative="1" as="geometry" />
        </mxCell>
        <mxCell id="HMQQhb6fDYw17Yuh2_Ba-9" value="Check&lt;br&gt;Valid ID" style="ellipse;whiteSpace=wrap;html=1;verticalAlign=top;" vertex="1" parent="1">
          <mxGeometry x="280" y="397.5" width="90" height="45" as="geometry" />
        </mxCell>
        <mxCell id="HMQQhb6fDYw17Yuh2_Ba-15" value="" style="edgeStyle=orthogonalEdgeStyle;rounded=0;orthogonalLoop=1;jettySize=auto;html=1;" edge="1" parent="1" source="HMQQhb6fDYw17Yuh2_Ba-12" target="HMQQhb6fDYw17Yuh2_Ba-14">
          <mxGeometry relative="1" as="geometry" />
        </mxCell>
        <mxCell id="HMQQhb6fDYw17Yuh2_Ba-17" value="" style="rounded=0;orthogonalLoop=1;jettySize=auto;html=1;" edge="1" parent="1" source="HMQQhb6fDYw17Yuh2_Ba-12" target="HMQQhb6fDYw17Yuh2_Ba-16">
          <mxGeometry relative="1" as="geometry" />
        </mxCell>
        <mxCell id="HMQQhb6fDYw17Yuh2_Ba-20" value="" style="edgeStyle=orthogonalEdgeStyle;rounded=0;orthogonalLoop=1;jettySize=auto;html=1;" edge="1" parent="1" source="HMQQhb6fDYw17Yuh2_Ba-12" target="HMQQhb6fDYw17Yuh2_Ba-19">
          <mxGeometry relative="1" as="geometry" />
        </mxCell>
        <mxCell id="HMQQhb6fDYw17Yuh2_Ba-31" value="" style="edgeStyle=orthogonalEdgeStyle;rounded=0;orthogonalLoop=1;jettySize=auto;html=1;" edge="1" parent="1" source="HMQQhb6fDYw17Yuh2_Ba-12" target="HMQQhb6fDYw17Yuh2_Ba-30">
          <mxGeometry relative="1" as="geometry" />
        </mxCell>
        <mxCell id="HMQQhb6fDYw17Yuh2_Ba-12" value="Access&lt;br&gt;MainUI" style="ellipse;whiteSpace=wrap;html=1;verticalAlign=top;" vertex="1" parent="1">
          <mxGeometry x="400" y="397.5" width="90" height="45" as="geometry" />
        </mxCell>
        <mxCell id="HMQQhb6fDYw17Yuh2_Ba-24" value="" style="edgeStyle=orthogonalEdgeStyle;rounded=0;orthogonalLoop=1;jettySize=auto;html=1;" edge="1" parent="1" source="HMQQhb6fDYw17Yuh2_Ba-14" target="HMQQhb6fDYw17Yuh2_Ba-23">
          <mxGeometry relative="1" as="geometry" />
        </mxCell>
        <mxCell id="HMQQhb6fDYw17Yuh2_Ba-70" value="" style="rounded=0;orthogonalLoop=1;jettySize=auto;html=1;" edge="1" parent="1" source="HMQQhb6fDYw17Yuh2_Ba-14">
          <mxGeometry relative="1" as="geometry">
            <mxPoint x="519" y="306" as="targetPoint" />
          </mxGeometry>
        </mxCell>
        <mxCell id="HMQQhb6fDYw17Yuh2_Ba-14" value="Access&lt;br&gt;MenuBar" style="ellipse;whiteSpace=wrap;html=1;verticalAlign=top;" vertex="1" parent="1">
          <mxGeometry x="400" y="310" width="90" height="45" as="geometry" />
        </mxCell>
        <mxCell id="HMQQhb6fDYw17Yuh2_Ba-16" value="Access&lt;div&gt;Search UI&lt;/div&gt;" style="ellipse;whiteSpace=wrap;html=1;verticalAlign=top;" vertex="1" parent="1">
          <mxGeometry x="510" y="340" width="90" height="45" as="geometry" />
        </mxCell>
        <mxCell id="HMQQhb6fDYw17Yuh2_Ba-72" value="" style="rounded=0;orthogonalLoop=1;jettySize=auto;html=1;" edge="1" parent="1" source="HMQQhb6fDYw17Yuh2_Ba-19" target="HMQQhb6fDYw17Yuh2_Ba-71">
          <mxGeometry relative="1" as="geometry" />
        </mxCell>
        <mxCell id="HMQQhb6fDYw17Yuh2_Ba-19" value="Access&lt;br&gt;newIssueUI" style="ellipse;whiteSpace=wrap;html=1;verticalAlign=top;" vertex="1" parent="1">
          <mxGeometry x="550" y="397.5" width="90" height="45" as="geometry" />
        </mxCell>
        <mxCell id="HMQQhb6fDYw17Yuh2_Ba-26" value="" style="edgeStyle=orthogonalEdgeStyle;rounded=0;orthogonalLoop=1;jettySize=auto;html=1;entryX=0.5;entryY=0;entryDx=0;entryDy=0;" edge="1" parent="1" source="HMQQhb6fDYw17Yuh2_Ba-23" target="HMQQhb6fDYw17Yuh2_Ba-2">
          <mxGeometry relative="1" as="geometry">
            <mxPoint x="210" y="400" as="targetPoint" />
          </mxGeometry>
        </mxCell>
        <mxCell id="HMQQhb6fDYw17Yuh2_Ba-23" value="Logout" style="ellipse;whiteSpace=wrap;html=1;verticalAlign=top;" vertex="1" parent="1">
          <mxGeometry x="400" y="260" width="90" height="30" as="geometry" />
        </mxCell>
        <mxCell id="HMQQhb6fDYw17Yuh2_Ba-27" value="&amp;lt;&amp;lt;includes&amp;gt;&amp;gt;&lt;span style=&quot;color: rgba(0, 0, 0, 0); font-family: monospace; font-size: 0px; text-align: start; text-wrap: nowrap;&quot;&gt;%3CmxGraphModel%3E%3Croot%3E%3CmxCell%20id%3D%220%22%2F%3E%3CmxCell%20id%3D%221%22%20parent%3D%220%22%2F%3E%3CmxCell%20id%3D%222%22%20value%3D%22%26amp%3Blt%3B%26amp%3Blt%3BExtends%26amp%3Bgt%3B%26amp%3Bgt%3B%22%20style%3D%22text%3Bhtml%3D1%3Balign%3Dcenter%3BverticalAlign%3Dmiddle%3BwhiteSpace%3Dwrap%3Brounded%3D0%3B%22%20vertex%3D%221%22%20parent%3D%221%22%3E%3CmxGeometry%20x%3D%22210%22%20y%3D%22530%22%20width%3D%2260%22%20height%3D%2230%22%20as%3D%22geometry%22%2F%3E%3C%2FmxCell%3E%3C%2Froot%3E%3C%2FmxGraphModel%3E&lt;/span&gt;" style="text;html=1;align=center;verticalAlign=middle;whiteSpace=wrap;rounded=0;" vertex="1" parent="1">
          <mxGeometry x="400" y="367.5" width="60" height="30" as="geometry" />
        </mxCell>
        <mxCell id="HMQQhb6fDYw17Yuh2_Ba-28" value="&amp;lt;&amp;lt;includes&amp;gt;&amp;gt;&lt;span style=&quot;color: rgba(0, 0, 0, 0); font-family: monospace; font-size: 0px; text-align: start; text-wrap: nowrap;&quot;&gt;%3CmxGraphModel%3E%3Croot%3E%3CmxCell%20id%3D%220%22%2F%3E%3CmxCell%20id%3D%221%22%20parent%3D%220%22%2F%3E%3CmxCell%20id%3D%222%22%20value%3D%22%26amp%3Blt%3B%26amp%3Blt%3BExtends%26amp%3Bgt%3B%26amp%3Bgt%3B%22%20style%3D%22text%3Bhtml%3D1%3Balign%3Dcenter%3BverticalAlign%3Dmiddle%3BwhiteSpace%3Dwrap%3Brounded%3D0%3B%22%20vertex%3D%221%22%20parent%3D%221%22%3E%3CmxGeometry%20x%3D%22210%22%20y%3D%22530%22%20width%3D%2260%22%20height%3D%2230%22%20as%3D%22geometry%22%2F%3E%3C%2FmxCell%3E%3C%2Froot%3E%3C%2FmxGraphModel%3E&lt;/span&gt;" style="text;html=1;align=center;verticalAlign=middle;whiteSpace=wrap;rounded=0;" vertex="1" parent="1">
          <mxGeometry x="480" y="390" width="60" height="30" as="geometry" />
        </mxCell>
        <mxCell id="HMQQhb6fDYw17Yuh2_Ba-29" value="&amp;lt;&amp;lt;includes&amp;gt;&amp;gt;&lt;span style=&quot;color: rgba(0, 0, 0, 0); font-family: monospace; font-size: 0px; text-align: start; text-wrap: nowrap;&quot;&gt;%3CmxGraphModel%3E%3Croot%3E%3CmxCell%20id%3D%220%22%2F%3E%3CmxCell%20id%3D%221%22%20parent%3D%220%22%2F%3E%3CmxCell%20id%3D%222%22%20value%3D%22%26amp%3Blt%3B%26amp%3Blt%3BExtends%26amp%3Bgt%3B%26amp%3Bgt%3B%22%20style%3D%22text%3Bhtml%3D1%3Balign%3Dcenter%3BverticalAlign%3Dmiddle%3BwhiteSpace%3Dwrap%3Brounded%3D0%3B%22%20vertex%3D%221%22%20parent%3D%221%22%3E%3CmxGeometry%20x%3D%22210%22%20y%3D%22530%22%20width%3D%2260%22%20height%3D%2230%22%20as%3D%22geometry%22%2F%3E%3C%2FmxCell%3E%3C%2Froot%3E%3C%2FmxGraphModel%3E&lt;/span&gt;" style="text;html=1;align=center;verticalAlign=middle;whiteSpace=wrap;rounded=0;" vertex="1" parent="1">
          <mxGeometry x="490" y="420" width="60" height="30" as="geometry" />
        </mxCell>
        <mxCell id="HMQQhb6fDYw17Yuh2_Ba-33" value="" style="edgeStyle=orthogonalEdgeStyle;rounded=0;orthogonalLoop=1;jettySize=auto;html=1;" edge="1" parent="1" source="HMQQhb6fDYw17Yuh2_Ba-30" target="HMQQhb6fDYw17Yuh2_Ba-32">
          <mxGeometry relative="1" as="geometry" />
        </mxCell>
        <mxCell id="HMQQhb6fDYw17Yuh2_Ba-30" value="Press&lt;br&gt;Textbox" style="ellipse;whiteSpace=wrap;html=1;verticalAlign=top;" vertex="1" parent="1">
          <mxGeometry x="400" y="522.5" width="90" height="45" as="geometry" />
        </mxCell>
        <mxCell id="HMQQhb6fDYw17Yuh2_Ba-35" value="" style="rounded=0;orthogonalLoop=1;jettySize=auto;html=1;" edge="1" parent="1" source="HMQQhb6fDYw17Yuh2_Ba-32" target="HMQQhb6fDYw17Yuh2_Ba-34">
          <mxGeometry relative="1" as="geometry" />
        </mxCell>
        <mxCell id="HMQQhb6fDYw17Yuh2_Ba-32" value="Access&lt;br&gt;EditIssueUI" style="ellipse;whiteSpace=wrap;html=1;verticalAlign=top;" vertex="1" parent="1">
          <mxGeometry x="525" y="522.5" width="90" height="45" as="geometry" />
        </mxCell>
        <mxCell id="HMQQhb6fDYw17Yuh2_Ba-58" value="" style="edgeStyle=orthogonalEdgeStyle;rounded=0;orthogonalLoop=1;jettySize=auto;html=1;entryX=1;entryY=0.5;entryDx=0;entryDy=0;" edge="1" parent="1" source="HMQQhb6fDYw17Yuh2_Ba-34" target="HMQQhb6fDYw17Yuh2_Ba-50">
          <mxGeometry relative="1" as="geometry">
            <mxPoint x="805" y="457.5" as="targetPoint" />
            <Array as="points">
              <mxPoint x="780" y="450" />
              <mxPoint x="780" y="725" />
            </Array>
          </mxGeometry>
        </mxCell>
        <mxCell id="HMQQhb6fDYw17Yuh2_Ba-34" value="Edit&lt;br&gt;TicketNumber" style="ellipse;whiteSpace=wrap;html=1;verticalAlign=top;" vertex="1" parent="1">
          <mxGeometry x="635" y="435" width="90" height="45" as="geometry" />
        </mxCell>
        <mxCell id="HMQQhb6fDYw17Yuh2_Ba-36" value="" style="rounded=0;orthogonalLoop=1;jettySize=auto;html=1;exitX=0.889;exitY=0.167;exitDx=0;exitDy=0;exitPerimeter=0;" edge="1" parent="1" target="HMQQhb6fDYw17Yuh2_Ba-37" source="HMQQhb6fDYw17Yuh2_Ba-32">
          <mxGeometry relative="1" as="geometry">
            <mxPoint x="614.5" y="585" as="sourcePoint" />
          </mxGeometry>
        </mxCell>
        <mxCell id="HMQQhb6fDYw17Yuh2_Ba-60" value="" style="rounded=0;orthogonalLoop=1;jettySize=auto;html=1;endArrow=none;endFill=0;" edge="1" parent="1" source="HMQQhb6fDYw17Yuh2_Ba-37">
          <mxGeometry relative="1" as="geometry">
            <mxPoint x="780" y="517" as="targetPoint" />
          </mxGeometry>
        </mxCell>
        <mxCell id="HMQQhb6fDYw17Yuh2_Ba-37" value="Edit&lt;div&gt;Priority&lt;/div&gt;" style="ellipse;whiteSpace=wrap;html=1;verticalAlign=top;" vertex="1" parent="1">
          <mxGeometry x="655.5" y="494" width="90" height="45" as="geometry" />
        </mxCell>
        <mxCell id="HMQQhb6fDYw17Yuh2_Ba-38" value="" style="rounded=0;orthogonalLoop=1;jettySize=auto;html=1;exitX=0.5;exitY=1;exitDx=0;exitDy=0;" edge="1" parent="1" target="HMQQhb6fDYw17Yuh2_Ba-39" source="HMQQhb6fDYw17Yuh2_Ba-32">
          <mxGeometry relative="1" as="geometry">
            <mxPoint x="615" y="641" as="sourcePoint" />
          </mxGeometry>
        </mxCell>
        <mxCell id="HMQQhb6fDYw17Yuh2_Ba-53" value="" style="rounded=0;orthogonalLoop=1;jettySize=auto;html=1;entryX=0;entryY=0.5;entryDx=0;entryDy=0;" edge="1" parent="1" source="HMQQhb6fDYw17Yuh2_Ba-39" target="HMQQhb6fDYw17Yuh2_Ba-50">
          <mxGeometry relative="1" as="geometry">
            <mxPoint x="570" y="750" as="targetPoint" />
            <Array as="points">
              <mxPoint x="570" y="725" />
            </Array>
          </mxGeometry>
        </mxCell>
        <mxCell id="HMQQhb6fDYw17Yuh2_Ba-39" value="add&lt;br&gt;Comment" style="ellipse;whiteSpace=wrap;html=1;verticalAlign=top;" vertex="1" parent="1">
          <mxGeometry x="525" y="620" width="90" height="50" as="geometry" />
        </mxCell>
        <mxCell id="HMQQhb6fDYw17Yuh2_Ba-40" value="" style="rounded=0;orthogonalLoop=1;jettySize=auto;html=1;" edge="1" parent="1" target="HMQQhb6fDYw17Yuh2_Ba-41">
          <mxGeometry relative="1" as="geometry">
            <mxPoint x="605" y="560" as="sourcePoint" />
          </mxGeometry>
        </mxCell>
        <mxCell id="HMQQhb6fDYw17Yuh2_Ba-41" value="Add&lt;br&gt;Assignee" style="ellipse;whiteSpace=wrap;html=1;verticalAlign=top;" vertex="1" parent="1">
          <mxGeometry x="656" y="550" width="90" height="45" as="geometry" />
        </mxCell>
        <mxCell id="HMQQhb6fDYw17Yuh2_Ba-42" value="" style="rounded=0;orthogonalLoop=1;jettySize=auto;html=1;exitX=0.733;exitY=0.967;exitDx=0;exitDy=0;exitPerimeter=0;" edge="1" parent="1" target="HMQQhb6fDYw17Yuh2_Ba-43" source="HMQQhb6fDYw17Yuh2_Ba-32">
          <mxGeometry relative="1" as="geometry">
            <mxPoint x="614.5" y="691" as="sourcePoint" />
          </mxGeometry>
        </mxCell>
        <mxCell id="HMQQhb6fDYw17Yuh2_Ba-43" value="Change&lt;br&gt;Status" style="ellipse;whiteSpace=wrap;html=1;verticalAlign=top;" vertex="1" parent="1">
          <mxGeometry x="655.5" y="600" width="90" height="45" as="geometry" />
        </mxCell>
        <mxCell id="HMQQhb6fDYw17Yuh2_Ba-44" value="&amp;lt;&amp;lt;includes&amp;gt;&amp;gt;&lt;span style=&quot;color: rgba(0, 0, 0, 0); font-family: monospace; font-size: 0px; text-align: start; text-wrap: nowrap;&quot;&gt;%3CmxGraphModel%3E%3Croot%3E%3CmxCell%20id%3D%220%22%2F%3E%3CmxCell%20id%3D%221%22%20parent%3D%220%22%2F%3E%3CmxCell%20id%3D%222%22%20value%3D%22%26amp%3Blt%3B%26amp%3Blt%3BExtends%26amp%3Bgt%3B%26amp%3Bgt%3B%22%20style%3D%22text%3Bhtml%3D1%3Balign%3Dcenter%3BverticalAlign%3Dmiddle%3BwhiteSpace%3Dwrap%3Brounded%3D0%3B%22%20vertex%3D%221%22%20parent%3D%221%22%3E%3CmxGeometry%20x%3D%22210%22%20y%3D%22530%22%20width%3D%2260%22%20height%3D%2230%22%20as%3D%22geometry%22%2F%3E%3C%2FmxCell%3E%3C%2Froot%3E%3C%2FmxGraphModel%3E&lt;/span&gt;" style="text;html=1;align=center;verticalAlign=middle;whiteSpace=wrap;rounded=0;" vertex="1" parent="1">
          <mxGeometry x="555" y="480" width="60" height="30" as="geometry" />
        </mxCell>
        <mxCell id="HMQQhb6fDYw17Yuh2_Ba-45" value="&amp;lt;&amp;lt;includes&amp;gt;&amp;gt;&lt;span style=&quot;color: rgba(0, 0, 0, 0); font-family: monospace; font-size: 0px; text-align: start; text-wrap: nowrap;&quot;&gt;%3CmxGraphModel%3E%3Croot%3E%3CmxCell%20id%3D%220%22%2F%3E%3CmxCell%20id%3D%221%22%20parent%3D%220%22%2F%3E%3CmxCell%20id%3D%222%22%20value%3D%22%26amp%3Blt%3B%26amp%3Blt%3BExtends%26amp%3Bgt%3B%26amp%3Bgt%3B%22%20style%3D%22text%3Bhtml%3D1%3Balign%3Dcenter%3BverticalAlign%3Dmiddle%3BwhiteSpace%3Dwrap%3Brounded%3D0%3B%22%20vertex%3D%221%22%20parent%3D%221%22%3E%3CmxGeometry%20x%3D%22210%22%20y%3D%22530%22%20width%3D%2260%22%20height%3D%2230%22%20as%3D%22geometry%22%2F%3E%3C%2FmxCell%3E%3C%2Froot%3E%3C%2FmxGraphModel%3E&lt;/span&gt;" style="text;html=1;align=center;verticalAlign=middle;whiteSpace=wrap;rounded=0;" vertex="1" parent="1">
          <mxGeometry x="605" y="500" width="60" height="30" as="geometry" />
        </mxCell>
        <mxCell id="HMQQhb6fDYw17Yuh2_Ba-46" value="&amp;lt;&amp;lt;includes&amp;gt;&amp;gt;&lt;span style=&quot;color: rgba(0, 0, 0, 0); font-family: monospace; font-size: 0px; text-align: start; text-wrap: nowrap;&quot;&gt;%3CmxGraphModel%3E%3Croot%3E%3CmxCell%20id%3D%220%22%2F%3E%3CmxCell%20id%3D%221%22%20parent%3D%220%22%2F%3E%3CmxCell%20id%3D%222%22%20value%3D%22%26amp%3Blt%3B%26amp%3Blt%3BExtends%26amp%3Bgt%3B%26amp%3Bgt%3B%22%20style%3D%22text%3Bhtml%3D1%3Balign%3Dcenter%3BverticalAlign%3Dmiddle%3BwhiteSpace%3Dwrap%3Brounded%3D0%3B%22%20vertex%3D%221%22%20parent%3D%221%22%3E%3CmxGeometry%20x%3D%22210%22%20y%3D%22530%22%20width%3D%2260%22%20height%3D%2230%22%20as%3D%22geometry%22%2F%3E%3C%2FmxCell%3E%3C%2Froot%3E%3C%2FmxGraphModel%3E&lt;/span&gt;" style="text;html=1;align=center;verticalAlign=middle;whiteSpace=wrap;rounded=0;" vertex="1" parent="1">
          <mxGeometry x="615" y="537.5" width="60" height="30" as="geometry" />
        </mxCell>
        <mxCell id="HMQQhb6fDYw17Yuh2_Ba-47" value="&amp;lt;&amp;lt;includes&amp;gt;&amp;gt;&lt;span style=&quot;color: rgba(0, 0, 0, 0); font-family: monospace; font-size: 0px; text-align: start; text-wrap: nowrap;&quot;&gt;%3CmxGraphModel%3E%3Croot%3E%3CmxCell%20id%3D%220%22%2F%3E%3CmxCell%20id%3D%221%22%20parent%3D%220%22%2F%3E%3CmxCell%20id%3D%222%22%20value%3D%22%26amp%3Blt%3B%26amp%3Blt%3BExtends%26amp%3Bgt%3B%26amp%3Bgt%3B%22%20style%3D%22text%3Bhtml%3D1%3Balign%3Dcenter%3BverticalAlign%3Dmiddle%3BwhiteSpace%3Dwrap%3Brounded%3D0%3B%22%20vertex%3D%221%22%20parent%3D%221%22%3E%3CmxGeometry%20x%3D%22210%22%20y%3D%22530%22%20width%3D%2260%22%20height%3D%2230%22%20as%3D%22geometry%22%2F%3E%3C%2FmxCell%3E%3C%2Froot%3E%3C%2FmxGraphModel%3E&lt;/span&gt;" style="text;html=1;align=center;verticalAlign=middle;whiteSpace=wrap;rounded=0;" vertex="1" parent="1">
          <mxGeometry x="595" y="585" width="60" height="30" as="geometry" />
        </mxCell>
        <mxCell id="HMQQhb6fDYw17Yuh2_Ba-48" value="&amp;lt;&amp;lt;includes&amp;gt;&amp;gt;&lt;span style=&quot;color: rgba(0, 0, 0, 0); font-family: monospace; font-size: 0px; text-align: start; text-wrap: nowrap;&quot;&gt;%3CmxGraphModel%3E%3Croot%3E%3CmxCell%20id%3D%220%22%2F%3E%3CmxCell%20id%3D%221%22%20parent%3D%220%22%2F%3E%3CmxCell%20id%3D%222%22%20value%3D%22%26amp%3Blt%3B%26amp%3Blt%3BExtends%26amp%3Bgt%3B%26amp%3Bgt%3B%22%20style%3D%22text%3Bhtml%3D1%3Balign%3Dcenter%3BverticalAlign%3Dmiddle%3BwhiteSpace%3Dwrap%3Brounded%3D0%3B%22%20vertex%3D%221%22%20parent%3D%221%22%3E%3CmxGeometry%20x%3D%22210%22%20y%3D%22530%22%20width%3D%2260%22%20height%3D%2230%22%20as%3D%22geometry%22%2F%3E%3C%2FmxCell%3E%3C%2Froot%3E%3C%2FmxGraphModel%3E&lt;/span&gt;" style="text;html=1;align=center;verticalAlign=middle;whiteSpace=wrap;rounded=0;" vertex="1" parent="1">
          <mxGeometry x="520" y="580" width="60" height="30" as="geometry" />
        </mxCell>
        <mxCell id="HMQQhb6fDYw17Yuh2_Ba-65" value="" style="edgeStyle=orthogonalEdgeStyle;rounded=0;orthogonalLoop=1;jettySize=auto;html=1;" edge="1" parent="1" source="HMQQhb6fDYw17Yuh2_Ba-50" target="HMQQhb6fDYw17Yuh2_Ba-64">
          <mxGeometry relative="1" as="geometry" />
        </mxCell>
        <mxCell id="HMQQhb6fDYw17Yuh2_Ba-50" value="Save" style="ellipse;whiteSpace=wrap;html=1;verticalAlign=top;" vertex="1" parent="1">
          <mxGeometry x="615" y="710" width="90" height="30" as="geometry" />
        </mxCell>
        <mxCell id="HMQQhb6fDYw17Yuh2_Ba-62" value="" style="rounded=0;orthogonalLoop=1;jettySize=auto;html=1;endArrow=none;endFill=0;" edge="1" parent="1">
          <mxGeometry relative="1" as="geometry">
            <mxPoint x="745.5" y="572.3" as="sourcePoint" />
            <mxPoint x="780" y="572" as="targetPoint" />
          </mxGeometry>
        </mxCell>
        <mxCell id="HMQQhb6fDYw17Yuh2_Ba-63" value="" style="rounded=0;orthogonalLoop=1;jettySize=auto;html=1;endArrow=none;endFill=0;" edge="1" parent="1">
          <mxGeometry relative="1" as="geometry">
            <mxPoint x="746" y="620" as="sourcePoint" />
            <mxPoint x="780" y="620" as="targetPoint" />
          </mxGeometry>
        </mxCell>
        <mxCell id="HMQQhb6fDYw17Yuh2_Ba-67" value="" style="edgeStyle=orthogonalEdgeStyle;rounded=0;orthogonalLoop=1;jettySize=auto;html=1;endArrow=none;endFill=0;" edge="1" parent="1" source="HMQQhb6fDYw17Yuh2_Ba-64">
          <mxGeometry relative="1" as="geometry">
            <mxPoint x="380" y="420" as="targetPoint" />
          </mxGeometry>
        </mxCell>
        <mxCell id="HMQQhb6fDYw17Yuh2_Ba-64" value="Refresh Table" style="ellipse;whiteSpace=wrap;html=1;verticalAlign=top;" vertex="1" parent="1">
          <mxGeometry x="615" y="770" width="90" height="30" as="geometry" />
        </mxCell>
        <mxCell id="HMQQhb6fDYw17Yuh2_Ba-69" value="Show&amp;nbsp;&lt;br&gt;User List" style="ellipse;whiteSpace=wrap;html=1;verticalAlign=top;" vertex="1" parent="1">
          <mxGeometry x="510" y="270" width="90" height="45" as="geometry" />
        </mxCell>
        <mxCell id="HMQQhb6fDYw17Yuh2_Ba-74" value="" style="edgeStyle=orthogonalEdgeStyle;rounded=0;orthogonalLoop=1;jettySize=auto;html=1;endArrow=none;endFill=0;movable=1;resizable=1;rotatable=1;deletable=1;editable=1;locked=0;connectable=1;" edge="1" parent="1">
          <mxGeometry relative="1" as="geometry">
            <mxPoint x="740.0013595499958" y="370.0000000000001" as="sourcePoint" />
            <mxPoint x="770.28" y="450" as="targetPoint" />
            <Array as="points">
              <mxPoint x="780" y="370" />
              <mxPoint x="780" y="450" />
            </Array>
          </mxGeometry>
        </mxCell>
        <mxCell id="HMQQhb6fDYw17Yuh2_Ba-71" value="Fill the&amp;nbsp;&lt;br&gt;empty Field" style="ellipse;whiteSpace=wrap;html=1;verticalAlign=top;" vertex="1" parent="1">
          <mxGeometry x="650" y="345" width="90" height="45" as="geometry" />
        </mxCell>
        <mxCell id="HMQQhb6fDYw17Yuh2_Ba-77" value="" style="rounded=0;orthogonalLoop=1;jettySize=auto;html=1;" edge="1" parent="1">
          <mxGeometry relative="1" as="geometry">
            <mxPoint x="492" y="330" as="sourcePoint" />
            <mxPoint x="610" y="400" as="targetPoint" />
            <Array as="points">
              <mxPoint x="610" y="330" />
            </Array>
          </mxGeometry>
        </mxCell>
      </root>
    </mxGraphModel>
  </diagram>
</mxfile>
